<svg width="289" height="294" viewBox="0 0 289 294" fill="none" xmlns="http://www.w3.org/2000/svg">
<rect y="0.235107" width="289" height="293.53" rx="16" fill="black"/>
<path d="M170.12 179.72C165.64 166.12 161 152.6 156.2 139.16C151.56 125.72 147.08 112.2 142.76 98.6C138.12 112.2 133.48 125.72 128.84 139.16C124.36 152.6 119.8 166.12 115.16 179.72H170.12ZM242.12 248.6C242.12 251 240.6 252.2 237.56 252.2C236.6 252.2 235.64 252.2 234.68 252.2C233.72 252.2 232.68 252.12 231.56 251.96C227.56 251.64 223.4 251.48 219.08 251.48C214.92 251.48 210.76 251.48 206.6 251.48C201.32 251.48 196.04 251.48 190.76 251.48C185.48 251.48 180.12 251.64 174.68 251.96C174.04 252.12 173.4 252.2 172.76 252.2C172.12 252.2 171.48 252.2 170.84 252.2C168.6 252.2 167.48 251.08 167.48 248.84C167.48 246.92 168.12 245.8 169.4 245.48C170.84 245 172.44 244.84 174.2 245C175.96 245.16 177.4 245.24 178.52 245.24C181.4 245.24 183.48 244.68 184.76 243.56C186.2 242.28 186.92 240.12 186.92 237.08C186.92 235.32 186.36 232.28 185.24 227.96C184.12 223.48 182.76 218.6 181.16 213.32C179.56 208.04 177.96 203.16 176.36 198.68C174.92 194.04 173.88 190.76 173.24 188.84H112.04C111.72 189.8 111 191.96 109.88 195.32C108.76 198.68 107.4 202.6 105.8 207.08C104.36 211.56 102.92 215.96 101.48 220.28C100.04 224.6 98.84 228.36 97.88 231.56C96.92 234.6 96.44 236.44 96.44 237.08C96.44 240.12 97.24 242.2 98.84 243.32C100.44 244.44 102.44 245.08 104.84 245.24C107.24 245.24 109.56 245.24 111.8 245.24C112.6 245.24 113.24 245.8 113.72 246.92C114.2 247.88 114.44 248.76 114.44 249.56C114.44 250.52 114.04 251.24 113.24 251.72C112.6 252.2 111.88 252.44 111.08 252.44C105.8 252.44 100.52 252.28 95.24 251.96C90.12 251.8 85 251.72 79.88 251.72C77.32 251.72 74.76 251.8 72.2 251.96C69.64 252.12 67 252.2 64.28 252.2C63.48 252.2 62.68 251.88 61.88 251.24C61.08 250.6 60.68 249.88 60.68 249.08C60.68 247.32 61.32 246.2 62.6 245.72C63.88 245.24 65.32 245.08 66.92 245.24C68.68 245.24 70.12 245.24 71.24 245.24C73.32 245.24 75 244.44 76.28 242.84C77.72 241.08 78.76 239.4 79.4 237.8C88.84 214.12 97.8 190.36 106.28 166.52C114.76 142.52 123 118.44 131 94.28C131.64 92.52 132.44 90.04 133.4 86.84C134.36 83.64 134.84 81.24 134.84 79.64C134.84 78.68 134.6 77.88 134.12 77.24C133.8 76.44 133.64 75.72 133.64 75.08C133.64 74.44 134.44 73.96 136.04 73.64C137.64 73.32 139.32 73.08 141.08 72.92C142.84 72.76 143.96 72.68 144.44 72.68C147.8 72.2 151.08 71.72 154.28 71.24C157.64 70.76 161 70.36 164.36 70.04L223.16 235.88C224.44 239.72 226.12 242.2 228.2 243.32C230.44 244.28 233.4 244.76 237.08 244.76C238.52 244.76 239.72 245 240.68 245.48C241.64 245.8 242.12 246.84 242.12 248.6Z" fill="white"/>
</svg>
