<svg width="76" height="82" viewBox="0 0 76 82" fill="none" xmlns="http://www.w3.org/2000/svg">
<path fill-rule="evenodd" clip-rule="evenodd" d="M2.6875 60.9609C0.871094 66.3516 0.226562 69.2227 0.226562 71.5664C0.226562 77.4258 4.85547 81.5859 11.418 81.5859C17.9219 81.5859 21.3789 78.1875 23.7812 69.5156L24.7773 65.8828H49.9141L50.9102 69.5156C53.2539 77.9531 57.0625 81.5859 63.5664 81.5859C70.5977 81.5859 75.2266 77.3672 75.2266 70.9219C75.2266 68.4023 74.582 65.3555 73.1758 60.9609L59.1719 18.0117C55.0117 5.29688 49.1523 0.433594 38.0195 0.433594C26.8867 0.433594 20.9102 5.35547 16.75 18.0117L2.6875 60.9609ZM17.7 18.324L3.63518 61.2803C1.82044 66.6658 1.22656 69.4008 1.22656 71.5664C1.22656 76.7733 5.30197 80.5859 11.418 80.5859C14.4773 80.5859 16.6919 79.7956 18.4386 78.0877C20.2279 76.3382 21.633 73.5244 22.8174 69.2492L24.0146 64.8828H50.6768L51.8737 69.248L51.8743 69.2502C53.024 73.3882 54.4974 76.2068 56.3684 77.9912C58.2064 79.7441 60.5201 80.5859 63.5664 80.5859C66.884 80.5859 69.5417 79.5928 71.3587 77.9326C73.1669 76.2805 74.2266 73.8928 74.2266 70.9219C74.2266 68.5624 73.6219 65.6365 72.2242 61.2683L72.2234 61.2657L58.2215 18.3227C56.1666 12.0424 53.7382 7.85474 50.5714 5.22377C47.4298 2.61369 43.4362 1.43359 38.0195 1.43359C32.6051 1.43359 28.5798 2.62729 25.4068 5.24763C22.2101 7.88744 19.7534 12.0771 17.7 18.324Z" fill="black"/>
<circle cx="37.5" cy="40.5" r="4.5" fill="black"/>
</svg>
